<mxfile host="app.diagrams.net" agent="Mozilla/5.0 (Windows NT 10.0; Win64; x64; rv:134.0) Gecko/20100101 Firefox/134.0" version="26.0.5">
  <diagram name="Page-1" id="e7e014a7-5840-1c2e-5031-d8a46d1fe8dd">
    <mxGraphModel dx="3514" dy="1841" grid="1" gridSize="10" guides="1" tooltips="1" connect="1" arrows="1" fold="1" page="1" pageScale="1" pageWidth="1169" pageHeight="826" background="none" math="0" shadow="0">
      <root>
        <mxCell id="0" />
        <mxCell id="1" parent="0" />
        <mxCell id="2" value="Administrador de Espacio" style="swimlane;whiteSpace=wrap" parent="1" vertex="1">
          <mxGeometry x="-80" y="128" width="524.5" height="1792" as="geometry" />
        </mxCell>
        <mxCell id="5J1f-jiPpOXVaAHq2X4_-67" style="edgeStyle=orthogonalEdgeStyle;rounded=0;orthogonalLoop=1;jettySize=auto;html=1;" edge="1" parent="2" source="fzZ7-fXXEc63i02S0-_m-42" target="fzZ7-fXXEc63i02S0-_m-44">
          <mxGeometry relative="1" as="geometry" />
        </mxCell>
        <mxCell id="fzZ7-fXXEc63i02S0-_m-42" value="Inicio" style="rounded=1;whiteSpace=wrap;html=1;arcSize=50;" parent="2" vertex="1">
          <mxGeometry x="160" y="52" width="120" height="60" as="geometry" />
        </mxCell>
        <mxCell id="5J1f-jiPpOXVaAHq2X4_-68" style="edgeStyle=orthogonalEdgeStyle;rounded=0;orthogonalLoop=1;jettySize=auto;html=1;entryX=0.5;entryY=0;entryDx=0;entryDy=0;" edge="1" parent="2" source="fzZ7-fXXEc63i02S0-_m-44" target="fzZ7-fXXEc63i02S0-_m-46">
          <mxGeometry relative="1" as="geometry" />
        </mxCell>
        <mxCell id="fzZ7-fXXEc63i02S0-_m-44" value="&lt;div align=&quot;center&quot;&gt;1.&lt;br&gt;&lt;/div&gt;&lt;div&gt;Accede al sistema SICODI: Correo y contraseña institucional&lt;/div&gt;" style="rounded=0;whiteSpace=wrap;html=1;" parent="2" vertex="1">
          <mxGeometry x="125.56" y="172" width="188.87" height="60" as="geometry" />
        </mxCell>
        <mxCell id="5J1f-jiPpOXVaAHq2X4_-69" style="edgeStyle=orthogonalEdgeStyle;rounded=0;orthogonalLoop=1;jettySize=auto;html=1;entryX=0.5;entryY=0;entryDx=0;entryDy=0;" edge="1" parent="2" source="fzZ7-fXXEc63i02S0-_m-46" target="5J1f-jiPpOXVaAHq2X4_-41">
          <mxGeometry relative="1" as="geometry" />
        </mxCell>
        <mxCell id="fzZ7-fXXEc63i02S0-_m-46" value="&lt;div&gt;2.&lt;br&gt;&lt;/div&gt;&lt;div&gt;Crea y nombrar plantilla&lt;br&gt;&lt;/div&gt;" style="rounded=0;whiteSpace=wrap;html=1;" parent="2" vertex="1">
          <mxGeometry x="165" y="292" width="110" height="56" as="geometry" />
        </mxCell>
        <mxCell id="5J1f-jiPpOXVaAHq2X4_-70" style="edgeStyle=orthogonalEdgeStyle;rounded=0;orthogonalLoop=1;jettySize=auto;html=1;exitX=0.5;exitY=1;exitDx=0;exitDy=0;entryX=0.5;entryY=0;entryDx=0;entryDy=0;" edge="1" parent="2" source="5J1f-jiPpOXVaAHq2X4_-41" target="5J1f-jiPpOXVaAHq2X4_-42">
          <mxGeometry relative="1" as="geometry" />
        </mxCell>
        <mxCell id="5J1f-jiPpOXVaAHq2X4_-41" value="&lt;div&gt;3.&amp;nbsp;&lt;/div&gt;&lt;div&gt;Edita plantilla&lt;/div&gt;" style="rounded=0;whiteSpace=wrap;html=1;" vertex="1" parent="2">
          <mxGeometry x="155" y="402" width="130" height="60" as="geometry" />
        </mxCell>
        <mxCell id="5J1f-jiPpOXVaAHq2X4_-42" value="&lt;div&gt;4.&lt;/div&gt;&lt;div&gt;Importar datos de integrantes&lt;br&gt;&lt;/div&gt;" style="rounded=0;whiteSpace=wrap;html=1;" vertex="1" parent="2">
          <mxGeometry x="152.22" y="522" width="135.57" height="60" as="geometry" />
        </mxCell>
        <mxCell id="3" value="Responsable del Área" style="swimlane;whiteSpace=wrap" parent="1" vertex="1">
          <mxGeometry x="444.5" y="128" width="585.5" height="1792" as="geometry" />
        </mxCell>
        <mxCell id="5J1f-jiPpOXVaAHq2X4_-43" value="&lt;div&gt;5.&lt;/div&gt;&lt;div&gt;Verificar plantilla&lt;br&gt;&lt;/div&gt;" style="rounded=0;whiteSpace=wrap;html=1;" vertex="1" parent="3">
          <mxGeometry x="232.75" y="522" width="120" height="60" as="geometry" />
        </mxCell>
        <mxCell id="5J1f-jiPpOXVaAHq2X4_-44" value="&lt;div&gt;6.&lt;/div&gt;&lt;div&gt;Solicitar firma y sello electrónico&lt;br&gt;&lt;/div&gt;" style="rounded=0;whiteSpace=wrap;html=1;" vertex="1" parent="3">
          <mxGeometry x="243.5" y="652" width="120" height="60" as="geometry" />
        </mxCell>
        <mxCell id="5J1f-jiPpOXVaAHq2X4_-45" value="&lt;div&gt;8.&lt;/div&gt;Enviar correo electrónico de plantillas para confirmar las plantillas para su firma y sello electrónico" style="rounded=0;whiteSpace=wrap;html=1;" vertex="1" parent="3">
          <mxGeometry x="223.25" y="802" width="164.5" height="78" as="geometry" />
        </mxCell>
        <mxCell id="5J1f-jiPpOXVaAHq2X4_-72" style="edgeStyle=orthogonalEdgeStyle;rounded=0;orthogonalLoop=1;jettySize=auto;html=1;entryX=0.412;entryY=-0.002;entryDx=0;entryDy=0;entryPerimeter=0;" edge="1" parent="3" source="5J1f-jiPpOXVaAHq2X4_-43" target="5J1f-jiPpOXVaAHq2X4_-44">
          <mxGeometry relative="1" as="geometry" />
        </mxCell>
        <mxCell id="4" value="Titular de Espacio" style="swimlane;whiteSpace=wrap" parent="1" vertex="1">
          <mxGeometry x="1030" y="128" width="630" height="1792" as="geometry" />
        </mxCell>
        <mxCell id="5J1f-jiPpOXVaAHq2X4_-46" value="&lt;div&gt;7.&lt;/div&gt;&lt;div&gt;Visualizar las plantillas que solicitan firma y sello electrónico&lt;br&gt;&lt;/div&gt;" style="rounded=0;whiteSpace=wrap;html=1;" vertex="1" parent="4">
          <mxGeometry x="247.5" y="652" width="145" height="60" as="geometry" />
        </mxCell>
        <mxCell id="5J1f-jiPpOXVaAHq2X4_-49" style="edgeStyle=orthogonalEdgeStyle;rounded=0;orthogonalLoop=1;jettySize=auto;html=1;entryX=0.5;entryY=0;entryDx=0;entryDy=0;" edge="1" parent="4" source="5J1f-jiPpOXVaAHq2X4_-47" target="5J1f-jiPpOXVaAHq2X4_-48">
          <mxGeometry relative="1" as="geometry" />
        </mxCell>
        <mxCell id="5J1f-jiPpOXVaAHq2X4_-50" style="edgeStyle=orthogonalEdgeStyle;rounded=0;orthogonalLoop=1;jettySize=auto;html=1;entryX=0.5;entryY=0;entryDx=0;entryDy=0;" edge="1" parent="4" source="5J1f-jiPpOXVaAHq2X4_-47" target="5J1f-jiPpOXVaAHq2X4_-51">
          <mxGeometry relative="1" as="geometry">
            <mxPoint x="345" y="1182" as="targetPoint" />
          </mxGeometry>
        </mxCell>
        <mxCell id="5J1f-jiPpOXVaAHq2X4_-47" value="¿Correo electrónico para firma y sello electrónico?" style="rhombus;whiteSpace=wrap;html=1;" vertex="1" parent="4">
          <mxGeometry x="247.5" y="972" width="195" height="148" as="geometry" />
        </mxCell>
        <mxCell id="5J1f-jiPpOXVaAHq2X4_-48" value="&lt;div&gt;&amp;nbsp;9.&lt;/div&gt;&lt;div&gt;Esperar correo electrónico del responsable de área&lt;/div&gt;" style="rounded=0;whiteSpace=wrap;html=1;" vertex="1" parent="4">
          <mxGeometry x="85" y="1072" width="140" height="68" as="geometry" />
        </mxCell>
        <mxCell id="5J1f-jiPpOXVaAHq2X4_-61" style="edgeStyle=orthogonalEdgeStyle;rounded=0;orthogonalLoop=1;jettySize=auto;html=1;entryX=0.5;entryY=0;entryDx=0;entryDy=0;" edge="1" parent="4" source="5J1f-jiPpOXVaAHq2X4_-51" target="5J1f-jiPpOXVaAHq2X4_-52">
          <mxGeometry relative="1" as="geometry" />
        </mxCell>
        <mxCell id="5J1f-jiPpOXVaAHq2X4_-51" value="10.&lt;br&gt;&lt;div&gt;Validar&lt;/div&gt;" style="rounded=0;whiteSpace=wrap;html=1;" vertex="1" parent="4">
          <mxGeometry x="272.5" y="1192" width="145" height="60" as="geometry" />
        </mxCell>
        <mxCell id="5J1f-jiPpOXVaAHq2X4_-56" style="edgeStyle=orthogonalEdgeStyle;rounded=0;orthogonalLoop=1;jettySize=auto;html=1;entryX=0.5;entryY=0;entryDx=0;entryDy=0;" edge="1" parent="4" source="5J1f-jiPpOXVaAHq2X4_-52" target="5J1f-jiPpOXVaAHq2X4_-54">
          <mxGeometry relative="1" as="geometry" />
        </mxCell>
        <mxCell id="5J1f-jiPpOXVaAHq2X4_-57" style="edgeStyle=orthogonalEdgeStyle;rounded=0;orthogonalLoop=1;jettySize=auto;html=1;" edge="1" parent="4" source="5J1f-jiPpOXVaAHq2X4_-52" target="5J1f-jiPpOXVaAHq2X4_-53">
          <mxGeometry relative="1" as="geometry" />
        </mxCell>
        <mxCell id="5J1f-jiPpOXVaAHq2X4_-52" value="¿Correcto?" style="rhombus;whiteSpace=wrap;html=1;" vertex="1" parent="4">
          <mxGeometry x="266.25" y="1302" width="157.5" height="118" as="geometry" />
        </mxCell>
        <mxCell id="5J1f-jiPpOXVaAHq2X4_-77" style="edgeStyle=orthogonalEdgeStyle;rounded=0;orthogonalLoop=1;jettySize=auto;html=1;" edge="1" parent="4" source="5J1f-jiPpOXVaAHq2X4_-53" target="5J1f-jiPpOXVaAHq2X4_-76">
          <mxGeometry relative="1" as="geometry" />
        </mxCell>
        <mxCell id="5J1f-jiPpOXVaAHq2X4_-53" value="&lt;div&gt;10.3&lt;/div&gt;&lt;div&gt;Firma y sello&lt;/div&gt;" style="rounded=0;whiteSpace=wrap;html=1;" vertex="1" parent="4">
          <mxGeometry x="272.5" y="1582" width="145" height="60" as="geometry" />
        </mxCell>
        <mxCell id="5J1f-jiPpOXVaAHq2X4_-58" style="edgeStyle=orthogonalEdgeStyle;rounded=0;orthogonalLoop=1;jettySize=auto;html=1;" edge="1" parent="4" source="5J1f-jiPpOXVaAHq2X4_-54" target="5J1f-jiPpOXVaAHq2X4_-55">
          <mxGeometry relative="1" as="geometry" />
        </mxCell>
        <mxCell id="5J1f-jiPpOXVaAHq2X4_-54" value="&lt;div&gt;10.1&lt;br&gt;&lt;/div&gt;&lt;div&gt;Rechazar&lt;/div&gt;" style="rounded=0;whiteSpace=wrap;html=1;" vertex="1" parent="4">
          <mxGeometry x="85" y="1392" width="90" height="58" as="geometry" />
        </mxCell>
        <mxCell id="5J1f-jiPpOXVaAHq2X4_-55" value="10.2&lt;br&gt;&lt;div&gt;Paso 2&lt;/div&gt;" style="rounded=0;whiteSpace=wrap;html=1;" vertex="1" parent="4">
          <mxGeometry x="70" y="1502" width="120" height="60" as="geometry" />
        </mxCell>
        <mxCell id="5J1f-jiPpOXVaAHq2X4_-76" value="Fin" style="rounded=1;whiteSpace=wrap;html=1;arcSize=50;" vertex="1" parent="4">
          <mxGeometry x="285" y="1702" width="120" height="60" as="geometry" />
        </mxCell>
        <mxCell id="5" value="" style="ellipse;shape=startState;fillColor=#000000;strokeColor=#ff0000;" parent="1" vertex="1">
          <mxGeometry x="1690" y="-730" width="30" height="30" as="geometry" />
        </mxCell>
        <mxCell id="6" value="" style="edgeStyle=elbowEdgeStyle;elbow=horizontal;verticalAlign=bottom;endArrow=open;endSize=8;strokeColor=#FF0000;endFill=1;rounded=0" parent="1" source="5" target="7" edge="1">
          <mxGeometry x="264.5" y="168" as="geometry">
            <mxPoint x="1705" y="-660" as="targetPoint" />
          </mxGeometry>
        </mxCell>
        <mxCell id="7" value="idle" style="" parent="1" vertex="1">
          <mxGeometry x="1650" y="-660" width="110" height="50" as="geometry" />
        </mxCell>
        <mxCell id="8" value="user action" style="" parent="1" vertex="1">
          <mxGeometry x="1650" y="-550" width="110" height="50" as="geometry" />
        </mxCell>
        <mxCell id="9" value="" style="endArrow=open;strokeColor=#FF0000;endFill=1;rounded=0" parent="1" source="7" target="8" edge="1">
          <mxGeometry relative="1" as="geometry" />
        </mxCell>
        <mxCell id="10" value="post command" style="" parent="1" vertex="1">
          <mxGeometry x="1650" y="-445" width="110" height="50" as="geometry" />
        </mxCell>
        <mxCell id="11" value="" style="endArrow=open;strokeColor=#FF0000;endFill=1;rounded=0" parent="1" source="8" target="10" edge="1">
          <mxGeometry relative="1" as="geometry" />
        </mxCell>
        <mxCell id="12" value="" style="edgeStyle=elbowEdgeStyle;elbow=horizontal;strokeColor=#FF0000;endArrow=open;endFill=1;rounded=0" parent="1" source="10" target="7" edge="1">
          <mxGeometry width="100" height="100" relative="1" as="geometry">
            <mxPoint x="1750" y="-480" as="sourcePoint" />
            <mxPoint x="1850" y="-580" as="targetPoint" />
            <Array as="points">
              <mxPoint x="1620" y="-520" />
            </Array>
          </mxGeometry>
        </mxCell>
        <mxCell id="13" value="" style="ellipse;shape=startState;fillColor=#000000;strokeColor=#ff0000;" parent="1" vertex="1">
          <mxGeometry x="1930" y="-730" width="30" height="30" as="geometry" />
        </mxCell>
        <mxCell id="14" value="" style="edgeStyle=elbowEdgeStyle;elbow=horizontal;verticalAlign=bottom;endArrow=open;endSize=8;strokeColor=#FF0000;endFill=1;rounded=0" parent="1" source="13" target="15" edge="1">
          <mxGeometry x="484.5" y="148" as="geometry">
            <mxPoint x="1925" y="-680" as="targetPoint" />
          </mxGeometry>
        </mxCell>
        <mxCell id="15" value="idle" style="" parent="1" vertex="1">
          <mxGeometry x="1890" y="-660" width="110" height="50" as="geometry" />
        </mxCell>
        <mxCell id="16" value="check for &#xa;new commands" style="" parent="1" vertex="1">
          <mxGeometry x="1890" y="-550" width="110" height="50" as="geometry" />
        </mxCell>
        <mxCell id="17" value="" style="endArrow=open;strokeColor=#FF0000;endFill=1;rounded=0" parent="1" source="15" target="16" edge="1">
          <mxGeometry relative="1" as="geometry" />
        </mxCell>
        <mxCell id="18" value="command queue" style="" parent="1" vertex="1">
          <mxGeometry x="1890" y="-445" width="110" height="50" as="geometry" />
        </mxCell>
        <mxCell id="19" value="" style="endArrow=open;strokeColor=#FF0000;endFill=1;rounded=0" parent="1" source="16" target="18" edge="1">
          <mxGeometry relative="1" as="geometry" />
        </mxCell>
        <mxCell id="21" value="queue empty" style="rhombus;fillColor=#ffffc0;strokeColor=#ff0000;" parent="1" vertex="1">
          <mxGeometry x="2020" y="-545" width="80" height="40" as="geometry" />
        </mxCell>
        <mxCell id="22" value="yes" style="edgeStyle=elbowEdgeStyle;elbow=horizontal;align=left;verticalAlign=bottom;endArrow=open;endSize=8;strokeColor=#FF0000;exitX=0.5;exitY=0;endFill=1;rounded=0;entryX=0.75;entryY=0.5;entryPerimeter=0" parent="1" source="21" target="25" edge="1">
          <mxGeometry x="-1" relative="1" as="geometry">
            <mxPoint x="2030" y="-620" as="targetPoint" />
            <Array as="points">
              <mxPoint x="2060" y="-590" />
            </Array>
          </mxGeometry>
        </mxCell>
        <mxCell id="23" value="no" style="edgeStyle=elbowEdgeStyle;elbow=horizontal;align=left;verticalAlign=top;endArrow=open;endSize=8;strokeColor=#FF0000;endFill=1;rounded=0" parent="1" source="21" target="30" edge="1">
          <mxGeometry x="-1" relative="1" as="geometry">
            <mxPoint x="2060" y="-465" as="targetPoint" />
          </mxGeometry>
        </mxCell>
        <mxCell id="24" value="" style="endArrow=open;strokeColor=#FF0000;endFill=1;rounded=0" parent="1" source="16" target="21" edge="1">
          <mxGeometry relative="1" as="geometry" />
        </mxCell>
        <mxCell id="25" value="" style="shape=line;strokeWidth=6;strokeColor=#ff0000;rotation=90" parent="1" vertex="1">
          <mxGeometry x="2000" y="-642.5" width="50" height="15" as="geometry" />
        </mxCell>
        <mxCell id="26" value="" style="edgeStyle=elbowEdgeStyle;elbow=horizontal;verticalAlign=bottom;endArrow=open;endSize=8;strokeColor=#FF0000;endFill=1;rounded=0" parent="1" source="25" target="15" edge="1">
          <mxGeometry x="574.5" y="218" as="geometry">
            <mxPoint x="2100" y="-630" as="targetPoint" />
          </mxGeometry>
        </mxCell>
        <mxCell id="30" value="dispatch&#xa;command&#xa;worker thread" style="" parent="1" vertex="1">
          <mxGeometry x="2010" y="-445" width="110" height="50" as="geometry" />
        </mxCell>
        <mxCell id="31" value="critical&#xa;section" style="shape=note;whiteSpace=wrap;size=17" parent="1" vertex="1">
          <mxGeometry x="1975" y="-280" width="100" height="50" as="geometry" />
        </mxCell>
        <mxCell id="32" value="" style="endArrow=none;strokeColor=#FF0000;endFill=0;rounded=0;dashed=1" parent="1" source="18" target="31" edge="1">
          <mxGeometry relative="1" as="geometry" />
        </mxCell>
        <mxCell id="34" value="" style="whiteSpace=wrap;strokeColor=#FF0000;fillColor=#FF0000" parent="1" vertex="1">
          <mxGeometry x="2115" y="-375" width="5" height="45" as="geometry" />
        </mxCell>
        <mxCell id="41" value="" style="edgeStyle=elbowEdgeStyle;elbow=horizontal;entryX=0;entryY=0.5;strokeColor=#FF0000;endArrow=open;endFill=1;rounded=0" parent="1" source="30" target="34" edge="1">
          <mxGeometry width="100" height="100" relative="1" as="geometry">
            <mxPoint x="1930" y="-290" as="sourcePoint" />
            <mxPoint x="2030" y="-390" as="targetPoint" />
            <Array as="points">
              <mxPoint x="2065" y="-370" />
            </Array>
          </mxGeometry>
        </mxCell>
        <mxCell id="33" value="process&#xa;command" style="" parent="1" vertex="1">
          <mxGeometry x="2240" y="-365" width="110" height="50" as="geometry" />
        </mxCell>
        <mxCell id="35" value="" style="edgeStyle=elbowEdgeStyle;elbow=horizontal;strokeColor=#FF0000;endArrow=open;endFill=1;rounded=0;entryX=0.25;entryY=0.5;entryPerimeter=0" parent="1" target="25" edge="1">
          <mxGeometry width="100" height="100" relative="1" as="geometry">
            <mxPoint x="2120" y="-360" as="sourcePoint" />
            <mxPoint x="2030" y="-650" as="targetPoint" />
            <Array as="points">
              <mxPoint x="2140" y="-635" />
            </Array>
          </mxGeometry>
        </mxCell>
        <mxCell id="37" value="" style="edgeStyle=none;strokeColor=#FF0000;endArrow=open;endFill=1;rounded=0" parent="1" target="33" edge="1">
          <mxGeometry width="100" height="100" relative="1" as="geometry">
            <mxPoint x="2120" y="-340.5" as="sourcePoint" />
            <mxPoint x="2240" y="-340.5" as="targetPoint" />
          </mxGeometry>
        </mxCell>
        <mxCell id="38" value="" style="ellipse;shape=endState;fillColor=#000000;strokeColor=#ff0000" parent="1" vertex="1">
          <mxGeometry x="2280" y="-270" width="30" height="30" as="geometry" />
        </mxCell>
        <mxCell id="39" value="" style="endArrow=open;strokeColor=#FF0000;endFill=1;rounded=0" parent="1" source="33" target="38" edge="1">
          <mxGeometry relative="1" as="geometry" />
        </mxCell>
        <mxCell id="20" value="" style="endArrow=open;strokeColor=#FF0000;endFill=1;rounded=0" parent="1" source="10" target="18" edge="1">
          <mxGeometry relative="1" as="geometry" />
        </mxCell>
        <mxCell id="5J1f-jiPpOXVaAHq2X4_-62" style="edgeStyle=orthogonalEdgeStyle;rounded=0;orthogonalLoop=1;jettySize=auto;html=1;" edge="1" parent="1" source="5J1f-jiPpOXVaAHq2X4_-44" target="5J1f-jiPpOXVaAHq2X4_-46">
          <mxGeometry relative="1" as="geometry" />
        </mxCell>
        <mxCell id="5J1f-jiPpOXVaAHq2X4_-65" value="" style="endArrow=classic;html=1;rounded=0;exitX=0.5;exitY=1;exitDx=0;exitDy=0;entryX=0.5;entryY=0;entryDx=0;entryDy=0;" edge="1" parent="1" source="5J1f-jiPpOXVaAHq2X4_-46" target="5J1f-jiPpOXVaAHq2X4_-45">
          <mxGeometry width="50" height="50" relative="1" as="geometry">
            <mxPoint x="1100" y="1020" as="sourcePoint" />
            <mxPoint x="1150" y="970" as="targetPoint" />
            <Array as="points">
              <mxPoint x="1350" y="890" />
              <mxPoint x="750" y="890" />
            </Array>
          </mxGeometry>
        </mxCell>
        <mxCell id="5J1f-jiPpOXVaAHq2X4_-71" style="edgeStyle=orthogonalEdgeStyle;rounded=0;orthogonalLoop=1;jettySize=auto;html=1;entryX=0;entryY=0.5;entryDx=0;entryDy=0;" edge="1" parent="1" source="5J1f-jiPpOXVaAHq2X4_-42" target="5J1f-jiPpOXVaAHq2X4_-43">
          <mxGeometry relative="1" as="geometry" />
        </mxCell>
        <mxCell id="5J1f-jiPpOXVaAHq2X4_-74" style="edgeStyle=orthogonalEdgeStyle;rounded=0;orthogonalLoop=1;jettySize=auto;html=1;entryX=0.5;entryY=0;entryDx=0;entryDy=0;" edge="1" parent="1" source="5J1f-jiPpOXVaAHq2X4_-45" target="5J1f-jiPpOXVaAHq2X4_-47">
          <mxGeometry relative="1" as="geometry" />
        </mxCell>
      </root>
    </mxGraphModel>
  </diagram>
</mxfile>
